<?xml version="1.0" encoding="UTF-8" standalone="no"?>
<!DOCTYPE svg PUBLIC "-//W3C//DTD SVG 1.1//EN"
 "http://www.w3.org/Graphics/SVG/1.1/DTD/svg11.dtd">
<!-- Generated by graphviz version 2.43.0 (0)
 -->
<!-- Title: G Pages: 1 -->
<svg width="3028pt" height="1366pt"
 viewBox="0.00 0.00 3028.20 1366.49" xmlns="http://www.w3.org/2000/svg" xmlns:xlink="http://www.w3.org/1999/xlink">
<g id="graph0" class="graph" transform="scale(1 1) rotate(0) translate(21.6 1344.89)">
<title>G</title>
<polygon fill="#111111" stroke="transparent" points="-21.6,21.6 -21.6,-1344.89 3006.6,-1344.89 3006.6,21.6 -21.6,21.6"/>
<!-- core/default.config.ts -->
<g id="node1" class="node">
<title>core/default.config.ts</title>
<path fill="none" stroke="#cfffac" d="M2977.33,-1063.79C2977.33,-1063.79 2851.67,-1063.79 2851.67,-1063.79 2847.83,-1063.79 2844,-1059.96 2844,-1056.13 2844,-1056.13 2844,-1048.46 2844,-1048.46 2844,-1044.63 2847.83,-1040.79 2851.67,-1040.79 2851.67,-1040.79 2977.33,-1040.79 2977.33,-1040.79 2981.17,-1040.79 2985,-1044.63 2985,-1048.46 2985,-1048.46 2985,-1056.13 2985,-1056.13 2985,-1059.96 2981.17,-1063.79 2977.33,-1063.79"/>
<text text-anchor="middle" x="2914.5" y="-1048.59" font-family="Arial" font-size="14.00" fill="#cfffac">core/default.config.ts</text>
</g>
<!-- core/helpers/FormatHelper.ts -->
<g id="node2" class="node">
<title>core/helpers/FormatHelper.ts</title>
<path fill="none" stroke="#cfffac" d="M2250.33,-446.79C2250.33,-446.79 2074.67,-446.79 2074.67,-446.79 2070.83,-446.79 2067,-442.96 2067,-439.13 2067,-439.13 2067,-431.46 2067,-431.46 2067,-427.63 2070.83,-423.79 2074.67,-423.79 2074.67,-423.79 2250.33,-423.79 2250.33,-423.79 2254.17,-423.79 2258,-427.63 2258,-431.46 2258,-431.46 2258,-439.13 2258,-439.13 2258,-442.96 2254.17,-446.79 2250.33,-446.79"/>
<text text-anchor="middle" x="2162.5" y="-431.59" font-family="Arial" font-size="14.00" fill="#cfffac">core/helpers/FormatHelper.ts</text>
</g>
<!-- core/models/Project.ts -->
<g id="node3" class="node">
<title>core/models/Project.ts</title>
<path fill="none" stroke="#c6c5fe" d="M2793.83,-1064.79C2793.83,-1064.79 2658.17,-1064.79 2658.17,-1064.79 2654.33,-1064.79 2650.5,-1060.96 2650.5,-1057.13 2650.5,-1057.13 2650.5,-1049.46 2650.5,-1049.46 2650.5,-1045.63 2654.33,-1041.79 2658.17,-1041.79 2658.17,-1041.79 2793.83,-1041.79 2793.83,-1041.79 2797.67,-1041.79 2801.5,-1045.63 2801.5,-1049.46 2801.5,-1049.46 2801.5,-1057.13 2801.5,-1057.13 2801.5,-1060.96 2797.67,-1064.79 2793.83,-1064.79"/>
<text text-anchor="middle" x="2726" y="-1049.59" font-family="Arial" font-size="14.00" fill="#c6c5fe">core/models/Project.ts</text>
</g>
<!-- core/models/Project.ts&#45;&gt;core/default.config.ts -->
<g id="edge1" class="edge">
<title>core/models/Project.ts&#45;&gt;core/default.config.ts</title>
<path fill="none" stroke="#757575" d="M2801.51,-1052.89C2812.12,-1052.84 2823.07,-1052.78 2833.78,-1052.72"/>
<polygon fill="#757575" stroke="#757575" points="2833.97,-1056.22 2843.95,-1052.67 2833.93,-1049.22 2833.97,-1056.22"/>
</g>
<!-- core/types.ts -->
<g id="node4" class="node">
<title>core/types.ts</title>
<path fill="none" stroke="#cfffac" d="M2953.33,-1104.79C2953.33,-1104.79 2875.67,-1104.79 2875.67,-1104.79 2871.83,-1104.79 2868,-1100.96 2868,-1097.13 2868,-1097.13 2868,-1089.46 2868,-1089.46 2868,-1085.63 2871.83,-1081.79 2875.67,-1081.79 2875.67,-1081.79 2953.33,-1081.79 2953.33,-1081.79 2957.17,-1081.79 2961,-1085.63 2961,-1089.46 2961,-1089.46 2961,-1097.13 2961,-1097.13 2961,-1100.96 2957.17,-1104.79 2953.33,-1104.79"/>
<text text-anchor="middle" x="2914.5" y="-1089.59" font-family="Arial" font-size="14.00" fill="#cfffac">core/types.ts</text>
</g>
<!-- core/models/Project.ts&#45;&gt;core/types.ts -->
<g id="edge2" class="edge">
<title>core/models/Project.ts&#45;&gt;core/types.ts</title>
<path fill="none" stroke="#757575" d="M2780.69,-1064.81C2804.91,-1070 2833.48,-1076.13 2857.92,-1081.37"/>
<polygon fill="#757575" stroke="#757575" points="2857.25,-1084.81 2867.76,-1083.48 2858.71,-1077.96 2857.25,-1084.81"/>
</g>
<!-- core/models/Segment.ts -->
<g id="node5" class="node">
<title>core/models/Segment.ts</title>
<path fill="none" stroke="#c6c5fe" d="M2550.83,-1104.79C2550.83,-1104.79 2402.17,-1104.79 2402.17,-1104.79 2398.33,-1104.79 2394.5,-1100.96 2394.5,-1097.13 2394.5,-1097.13 2394.5,-1089.46 2394.5,-1089.46 2394.5,-1085.63 2398.33,-1081.79 2402.17,-1081.79 2402.17,-1081.79 2550.83,-1081.79 2550.83,-1081.79 2554.67,-1081.79 2558.5,-1085.63 2558.5,-1089.46 2558.5,-1089.46 2558.5,-1097.13 2558.5,-1097.13 2558.5,-1100.96 2554.67,-1104.79 2550.83,-1104.79"/>
<text text-anchor="middle" x="2476.5" y="-1089.59" font-family="Arial" font-size="14.00" fill="#c6c5fe">core/models/Segment.ts</text>
</g>
<!-- core/models/Segment.ts&#45;&gt;core/types.ts -->
<g id="edge3" class="edge">
<title>core/models/Segment.ts&#45;&gt;core/types.ts</title>
<path fill="none" stroke="#757575" d="M2558.74,-1093.29C2645.8,-1093.29 2781.68,-1093.29 2857.52,-1093.29"/>
<polygon fill="#757575" stroke="#757575" points="2857.81,-1096.79 2867.81,-1093.29 2857.81,-1089.79 2857.81,-1096.79"/>
</g>
<!-- core/models/Template.ts -->
<g id="node6" class="node">
<title>core/models/Template.ts</title>
<path fill="none" stroke="#c6c5fe" d="M2800.33,-928.79C2800.33,-928.79 2651.67,-928.79 2651.67,-928.79 2647.83,-928.79 2644,-924.96 2644,-921.13 2644,-921.13 2644,-913.46 2644,-913.46 2644,-909.63 2647.83,-905.79 2651.67,-905.79 2651.67,-905.79 2800.33,-905.79 2800.33,-905.79 2804.17,-905.79 2808,-909.63 2808,-913.46 2808,-913.46 2808,-921.13 2808,-921.13 2808,-924.96 2804.17,-928.79 2800.33,-928.79"/>
<text text-anchor="middle" x="2726" y="-913.59" font-family="Arial" font-size="14.00" fill="#c6c5fe">core/models/Template.ts</text>
</g>
<!-- core/models/Template.ts&#45;&gt;core/types.ts -->
<g id="edge4" class="edge">
<title>core/models/Template.ts&#45;&gt;core/types.ts</title>
<path fill="none" stroke="#757575" d="M2735.21,-929.12C2759.35,-963.75 2829.3,-1063.16 2844,-1073.29 2848.35,-1076.29 2853.14,-1078.84 2858.12,-1081.02"/>
<polygon fill="#757575" stroke="#757575" points="2857.25,-1084.43 2867.84,-1084.74 2859.76,-1077.9 2857.25,-1084.43"/>
</g>
<!-- director/TemplateConcreteBuilder.ts -->
<g id="node7" class="node">
<title>director/TemplateConcreteBuilder.ts</title>
<path fill="none" stroke="#c6c5fe" d="M637.33,-708.79C637.33,-708.79 421.67,-708.79 421.67,-708.79 417.83,-708.79 414,-704.96 414,-701.13 414,-701.13 414,-693.46 414,-693.46 414,-689.63 417.83,-685.79 421.67,-685.79 421.67,-685.79 637.33,-685.79 637.33,-685.79 641.17,-685.79 645,-689.63 645,-693.46 645,-693.46 645,-701.13 645,-701.13 645,-704.96 641.17,-708.79 637.33,-708.79"/>
<text text-anchor="middle" x="529.5" y="-693.59" font-family="Arial" font-size="14.00" fill="#c6c5fe">director/TemplateConcreteBuilder.ts</text>
</g>
<!-- director/TemplateConcreteBuilder.ts&#45;&gt;core/models/Project.ts -->
<g id="edge5" class="edge">
<title>director/TemplateConcreteBuilder.ts&#45;&gt;core/models/Project.ts</title>
<path fill="none" stroke="#757575" d="M632.94,-708.86C637.29,-711.53 641.35,-714.66 645,-718.29 706.79,-779.9 636.79,-836.07 681,-911.29 799.5,-1112.93 852.12,-1247.29 1086,-1247.29 1086,-1247.29 1086,-1247.29 2163.5,-1247.29 2362.51,-1247.29 2433.14,-1288.31 2608,-1193.29 2659.2,-1165.47 2697.24,-1105.34 2714.58,-1073.7"/>
<polygon fill="#757575" stroke="#757575" points="2717.68,-1075.33 2719.3,-1064.86 2711.5,-1072.04 2717.68,-1075.33"/>
</g>
<!-- editor/SegmentBuilder.ts -->
<g id="node8" class="node">
<title>editor/SegmentBuilder.ts</title>
<path fill="none" stroke="#c6c5fe" d="M1427.33,-931.79C1427.33,-931.79 1278.67,-931.79 1278.67,-931.79 1274.83,-931.79 1271,-927.96 1271,-924.13 1271,-924.13 1271,-916.46 1271,-916.46 1271,-912.63 1274.83,-908.79 1278.67,-908.79 1278.67,-908.79 1427.33,-908.79 1427.33,-908.79 1431.17,-908.79 1435,-912.63 1435,-916.46 1435,-916.46 1435,-924.13 1435,-924.13 1435,-927.96 1431.17,-931.79 1427.33,-931.79"/>
<text text-anchor="middle" x="1353" y="-916.59" font-family="Arial" font-size="14.00" fill="#c6c5fe">editor/SegmentBuilder.ts</text>
</g>
<!-- director/TemplateConcreteBuilder.ts&#45;&gt;editor/SegmentBuilder.ts -->
<g id="edge6" class="edge">
<title>director/TemplateConcreteBuilder.ts&#45;&gt;editor/SegmentBuilder.ts</title>
<path fill="none" stroke="#757575" d="M632.13,-708.85C636.75,-711.52 641.09,-714.64 645,-718.29 692.27,-762.43 636.61,-812.26 681,-859.29 763.59,-946.79 820.1,-922.85 939,-941.29 1069,-961.46 1103.96,-952.96 1235,-941.29 1252.7,-939.72 1271.73,-936.83 1289.19,-933.68"/>
<polygon fill="#757575" stroke="#757575" points="1290.07,-937.08 1299.27,-931.81 1288.8,-930.2 1290.07,-937.08"/>
</g>
<!-- editor/factories/SegmentFactory.ts -->
<g id="node9" class="node">
<title>editor/factories/SegmentFactory.ts</title>
<path fill="none" stroke="#c6c5fe" d="M895.33,-849.79C895.33,-849.79 688.67,-849.79 688.67,-849.79 684.83,-849.79 681,-845.96 681,-842.13 681,-842.13 681,-834.46 681,-834.46 681,-830.63 684.83,-826.79 688.67,-826.79 688.67,-826.79 895.33,-826.79 895.33,-826.79 899.17,-826.79 903,-830.63 903,-834.46 903,-834.46 903,-842.13 903,-842.13 903,-845.96 899.17,-849.79 895.33,-849.79"/>
<text text-anchor="middle" x="792" y="-834.59" font-family="Arial" font-size="14.00" fill="#c6c5fe">editor/factories/SegmentFactory.ts</text>
</g>
<!-- director/TemplateConcreteBuilder.ts&#45;&gt;editor/factories/SegmentFactory.ts -->
<g id="edge7" class="edge">
<title>director/TemplateConcreteBuilder.ts&#45;&gt;editor/factories/SegmentFactory.ts</title>
<path fill="none" stroke="#757575" d="M619.12,-708.86C628.06,-711.4 636.84,-714.51 645,-718.29 672.71,-731.16 737.36,-788.8 770.55,-819.27"/>
<polygon fill="#757575" stroke="#757575" points="768.54,-822.18 778.26,-826.39 773.29,-817.04 768.54,-822.18"/>
</g>
<!-- platform/ffmpeg/AbstractFFmpeg.ts -->
<g id="node10" class="node">
<title>platform/ffmpeg/AbstractFFmpeg.ts</title>
<path fill="none" stroke="#cfffac" d="M2269.83,-526.79C2269.83,-526.79 2055.17,-526.79 2055.17,-526.79 2051.33,-526.79 2047.5,-522.96 2047.5,-519.13 2047.5,-519.13 2047.5,-511.46 2047.5,-511.46 2047.5,-507.63 2051.33,-503.79 2055.17,-503.79 2055.17,-503.79 2269.83,-503.79 2269.83,-503.79 2273.67,-503.79 2277.5,-507.63 2277.5,-511.46 2277.5,-511.46 2277.5,-519.13 2277.5,-519.13 2277.5,-522.96 2273.67,-526.79 2269.83,-526.79"/>
<text text-anchor="middle" x="2162.5" y="-511.59" font-family="Arial" font-size="14.00" fill="#cfffac">platform/ffmpeg/AbstractFFmpeg.ts</text>
</g>
<!-- director/TemplateConcreteBuilder.ts&#45;&gt;platform/ffmpeg/AbstractFFmpeg.ts -->
<g id="edge8" class="edge">
<title>director/TemplateConcreteBuilder.ts&#45;&gt;platform/ffmpeg/AbstractFFmpeg.ts</title>
<path fill="none" stroke="#757575" d="M566.99,-685.77C597.28,-676.53 641.61,-663.75 681,-655.29 1136.29,-557.56 1254.64,-536.94 1720,-520.29 1826.96,-516.47 1948.57,-515.33 2037.04,-515.08"/>
<polygon fill="#757575" stroke="#757575" points="2037.13,-518.58 2047.12,-515.06 2037.11,-511.58 2037.13,-518.58"/>
</g>
<!-- platform/filesystem/AbstractFilesystem.ts -->
<g id="node11" class="node">
<title>platform/filesystem/AbstractFilesystem.ts</title>
<path fill="none" stroke="#cfffac" d="M2600.33,-330.79C2600.33,-330.79 2352.67,-330.79 2352.67,-330.79 2348.83,-330.79 2345,-326.96 2345,-323.13 2345,-323.13 2345,-315.46 2345,-315.46 2345,-311.63 2348.83,-307.79 2352.67,-307.79 2352.67,-307.79 2600.33,-307.79 2600.33,-307.79 2604.17,-307.79 2608,-311.63 2608,-315.46 2608,-315.46 2608,-323.13 2608,-323.13 2608,-326.96 2604.17,-330.79 2600.33,-330.79"/>
<text text-anchor="middle" x="2476.5" y="-315.59" font-family="Arial" font-size="14.00" fill="#cfffac">platform/filesystem/AbstractFilesystem.ts</text>
</g>
<!-- director/TemplateConcreteBuilder.ts&#45;&gt;platform/filesystem/AbstractFilesystem.ts -->
<g id="edge9" class="edge">
<title>director/TemplateConcreteBuilder.ts&#45;&gt;platform/filesystem/AbstractFilesystem.ts</title>
<path fill="none" stroke="#757575" d="M645.05,-688.15C757.31,-679.98 933.31,-669.29 1086,-669.29 1086,-669.29 1086,-669.29 1578.5,-669.29 1581.06,-669.29 2307.15,-566.07 2309,-564.29 2371.11,-504.89 2290.98,-441.15 2345,-374.29 2360.62,-354.97 2384.24,-342.33 2407.12,-334.11"/>
<polygon fill="#757575" stroke="#757575" points="2408.48,-337.34 2416.85,-330.85 2406.26,-330.71 2408.48,-337.34"/>
</g>
<!-- platform/logging/AbstractLogger.ts -->
<g id="node12" class="node">
<title>platform/logging/AbstractLogger.ts</title>
<path fill="none" stroke="#cfffac" d="M2579.83,-406.79C2579.83,-406.79 2373.17,-406.79 2373.17,-406.79 2369.33,-406.79 2365.5,-402.96 2365.5,-399.13 2365.5,-399.13 2365.5,-391.46 2365.5,-391.46 2365.5,-387.63 2369.33,-383.79 2373.17,-383.79 2373.17,-383.79 2579.83,-383.79 2579.83,-383.79 2583.67,-383.79 2587.5,-387.63 2587.5,-391.46 2587.5,-391.46 2587.5,-399.13 2587.5,-399.13 2587.5,-402.96 2583.67,-406.79 2579.83,-406.79"/>
<text text-anchor="middle" x="2476.5" y="-391.59" font-family="Arial" font-size="14.00" fill="#cfffac">platform/logging/AbstractLogger.ts</text>
</g>
<!-- director/TemplateConcreteBuilder.ts&#45;&gt;platform/logging/AbstractLogger.ts -->
<g id="edge10" class="edge">
<title>director/TemplateConcreteBuilder.ts&#45;&gt;platform/logging/AbstractLogger.ts</title>
<path fill="none" stroke="#757575" d="M645.04,-706.77C757.3,-715.23 933.3,-726.29 1086,-726.29 1086,-726.29 1086,-726.29 1354,-726.29 1568.21,-726.29 2128.54,-710.7 2309,-595.29 2383.35,-547.75 2441.18,-456.31 2464.41,-415.65"/>
<polygon fill="#757575" stroke="#757575" points="2467.48,-417.33 2469.32,-406.9 2461.37,-413.91 2467.48,-417.33"/>
</g>
<!-- editor/SegmentBuilder.ts&#45;&gt;core/models/Project.ts -->
<g id="edge27" class="edge">
<title>editor/SegmentBuilder.ts&#45;&gt;core/models/Project.ts</title>
<path fill="none" stroke="#757575" d="M1356.91,-932C1366.45,-967.75 1400.27,-1076.21 1471,-1128.29 1609.35,-1230.18 1677.19,-1209.29 1849,-1209.29 1849,-1209.29 1849,-1209.29 2163.5,-1209.29 2362.85,-1209.29 2425.23,-1228.87 2608,-1149.29 2648.98,-1131.45 2687.16,-1094.93 2708.17,-1072.44"/>
<polygon fill="#757575" stroke="#757575" points="2710.94,-1074.59 2715.1,-1064.84 2705.77,-1069.87 2710.94,-1074.59"/>
</g>
<!-- editor/SegmentBuilder.ts&#45;&gt;core/models/Segment.ts -->
<g id="edge28" class="edge">
<title>editor/SegmentBuilder.ts&#45;&gt;core/models/Segment.ts</title>
<path fill="none" stroke="#757575" d="M1358.34,-931.85C1370.53,-962.47 1408.37,-1045.58 1471,-1078.29 1798.17,-1249.2 2270.91,-1147.78 2424.93,-1107.5"/>
<polygon fill="#757575" stroke="#757575" points="2426.27,-1110.76 2435.04,-1104.82 2424.48,-1104 2426.27,-1110.76"/>
</g>
<!-- editor/SegmentBuilder.ts&#45;&gt;core/models/Template.ts -->
<g id="edge29" class="edge">
<title>editor/SegmentBuilder.ts&#45;&gt;core/models/Template.ts</title>
<path fill="none" stroke="#757575" d="M1410.51,-908.75C1502.15,-891.06 1689.03,-859.29 1849,-859.29 1849,-859.29 1849,-859.29 2163.5,-859.29 2337,-859.29 2539.07,-887.03 2647.22,-904.14"/>
<polygon fill="#757575" stroke="#757575" points="2646.96,-907.65 2657.38,-905.77 2648.06,-900.73 2646.96,-907.65"/>
</g>
<!-- editor/SegmentBuilder.ts&#45;&gt;platform/filesystem/AbstractFilesystem.ts -->
<g id="edge35" class="edge">
<title>editor/SegmentBuilder.ts&#45;&gt;platform/filesystem/AbstractFilesystem.ts</title>
<path fill="none" stroke="#757575" d="M1362.13,-908.43C1379.27,-884.38 1421.63,-829.86 1471,-802.29 1637.95,-709.1 2178.99,-747.49 2309,-607.29 2380.25,-530.46 2280.54,-456.9 2345,-374.29 2360.09,-354.96 2383.23,-342.34 2405.86,-334.14"/>
<polygon fill="#757575" stroke="#757575" points="2407.14,-337.4 2415.5,-330.89 2404.91,-330.77 2407.14,-337.4"/>
</g>
<!-- editor/SegmentBuilder.ts&#45;&gt;platform/logging/AbstractLogger.ts -->
<g id="edge36" class="edge">
<title>editor/SegmentBuilder.ts&#45;&gt;platform/logging/AbstractLogger.ts</title>
<path fill="none" stroke="#757575" d="M1367.27,-908.7C1387.86,-891.48 1429.49,-859.61 1471,-845.29 1826.94,-722.57 2012.22,-952.97 2309,-721.29 2413.01,-640.1 2457.83,-476.18 2471.05,-417.12"/>
<polygon fill="#757575" stroke="#757575" points="2474.53,-417.58 2473.22,-407.06 2467.69,-416.1 2474.53,-417.58"/>
</g>
<!-- editor/managers/AssetManager.ts -->
<g id="node18" class="node">
<title>editor/managers/AssetManager.ts</title>
<path fill="none" stroke="#c6c5fe" d="M2264.83,-910.79C2264.83,-910.79 2060.17,-910.79 2060.17,-910.79 2056.33,-910.79 2052.5,-906.96 2052.5,-903.13 2052.5,-903.13 2052.5,-895.46 2052.5,-895.46 2052.5,-891.63 2056.33,-887.79 2060.17,-887.79 2060.17,-887.79 2264.83,-887.79 2264.83,-887.79 2268.67,-887.79 2272.5,-891.63 2272.5,-895.46 2272.5,-895.46 2272.5,-903.13 2272.5,-903.13 2272.5,-906.96 2268.67,-910.79 2264.83,-910.79"/>
<text text-anchor="middle" x="2162.5" y="-895.59" font-family="Arial" font-size="14.00" fill="#c6c5fe">editor/managers/AssetManager.ts</text>
</g>
<!-- editor/SegmentBuilder.ts&#45;&gt;editor/managers/AssetManager.ts -->
<g id="edge30" class="edge">
<title>editor/SegmentBuilder.ts&#45;&gt;editor/managers/AssetManager.ts</title>
<path fill="none" stroke="#757575" d="M1435.12,-918.18C1578.11,-914.47 1875.58,-906.73 2042.07,-902.4"/>
<polygon fill="#757575" stroke="#757575" points="2042.45,-905.89 2052.35,-902.13 2042.27,-898.89 2042.45,-905.89"/>
</g>
<!-- editor/managers/FilterManager.ts -->
<g id="node19" class="node">
<title>editor/managers/FilterManager.ts</title>
<path fill="none" stroke="#c6c5fe" d="M1950.33,-1028.79C1950.33,-1028.79 1749.67,-1028.79 1749.67,-1028.79 1745.83,-1028.79 1742,-1024.96 1742,-1021.13 1742,-1021.13 1742,-1013.46 1742,-1013.46 1742,-1009.63 1745.83,-1005.79 1749.67,-1005.79 1749.67,-1005.79 1950.33,-1005.79 1950.33,-1005.79 1954.17,-1005.79 1958,-1009.63 1958,-1013.46 1958,-1013.46 1958,-1021.13 1958,-1021.13 1958,-1024.96 1954.17,-1028.79 1950.33,-1028.79"/>
<text text-anchor="middle" x="1850" y="-1013.59" font-family="Arial" font-size="14.00" fill="#c6c5fe">editor/managers/FilterManager.ts</text>
</g>
<!-- editor/SegmentBuilder.ts&#45;&gt;editor/managers/FilterManager.ts -->
<g id="edge31" class="edge">
<title>editor/SegmentBuilder.ts&#45;&gt;editor/managers/FilterManager.ts</title>
<path fill="none" stroke="#757575" d="M1368.03,-931.93C1388.95,-948.52 1430.23,-978.37 1471,-991.29 1555.46,-1018.08 1655.7,-1023.87 1731.72,-1023.35"/>
<polygon fill="#757575" stroke="#757575" points="1731.85,-1026.85 1741.81,-1023.25 1731.77,-1019.85 1731.85,-1026.85"/>
</g>
<!-- editor/managers/FormatterManager.ts -->
<g id="node20" class="node">
<title>editor/managers/FormatterManager.ts</title>
<path fill="none" stroke="#c6c5fe" d="M2277.33,-1028.79C2277.33,-1028.79 2047.67,-1028.79 2047.67,-1028.79 2043.83,-1028.79 2040,-1024.96 2040,-1021.13 2040,-1021.13 2040,-1013.46 2040,-1013.46 2040,-1009.63 2043.83,-1005.79 2047.67,-1005.79 2047.67,-1005.79 2277.33,-1005.79 2277.33,-1005.79 2281.17,-1005.79 2285,-1009.63 2285,-1013.46 2285,-1013.46 2285,-1021.13 2285,-1021.13 2285,-1024.96 2281.17,-1028.79 2277.33,-1028.79"/>
<text text-anchor="middle" x="2162.5" y="-1013.59" font-family="Arial" font-size="14.00" fill="#c6c5fe">editor/managers/FormatterManager.ts</text>
</g>
<!-- editor/SegmentBuilder.ts&#45;&gt;editor/managers/FormatterManager.ts -->
<g id="edge32" class="edge">
<title>editor/SegmentBuilder.ts&#45;&gt;editor/managers/FormatterManager.ts</title>
<path fill="none" stroke="#757575" d="M1388.41,-931.85C1411.51,-939.15 1442.76,-948.14 1471,-953.29 1694.37,-994.07 1754.02,-975.08 1980,-997.29 2002.81,-999.54 2027.21,-1002.11 2050.49,-1004.64"/>
<polygon fill="#757575" stroke="#757575" points="2050.42,-1008.16 2060.74,-1005.76 2051.18,-1001.2 2050.42,-1008.16"/>
</g>
<!-- editor/managers/MapManager.ts -->
<g id="node21" class="node">
<title>editor/managers/MapManager.ts</title>
<path fill="none" stroke="#c6c5fe" d="M1676.33,-1068.79C1676.33,-1068.79 1478.67,-1068.79 1478.67,-1068.79 1474.83,-1068.79 1471,-1064.96 1471,-1061.13 1471,-1061.13 1471,-1053.46 1471,-1053.46 1471,-1049.63 1474.83,-1045.79 1478.67,-1045.79 1478.67,-1045.79 1676.33,-1045.79 1676.33,-1045.79 1680.17,-1045.79 1684,-1049.63 1684,-1053.46 1684,-1053.46 1684,-1061.13 1684,-1061.13 1684,-1064.96 1680.17,-1068.79 1676.33,-1068.79"/>
<text text-anchor="middle" x="1577.5" y="-1053.59" font-family="Arial" font-size="14.00" fill="#c6c5fe">editor/managers/MapManager.ts</text>
</g>
<!-- editor/SegmentBuilder.ts&#45;&gt;editor/managers/MapManager.ts -->
<g id="edge33" class="edge">
<title>editor/SegmentBuilder.ts&#45;&gt;editor/managers/MapManager.ts</title>
<path fill="none" stroke="#757575" d="M1362.92,-931.94C1380.85,-954.5 1423.6,-1004.24 1471,-1030.29 1480.1,-1035.3 1490.16,-1039.4 1500.34,-1042.75"/>
<polygon fill="#757575" stroke="#757575" points="1499.52,-1046.16 1510.11,-1045.74 1501.57,-1039.47 1499.52,-1046.16"/>
</g>
<!-- editor/managers/VariableManager.ts -->
<g id="node22" class="node">
<title>editor/managers/VariableManager.ts</title>
<path fill="none" stroke="#c6c5fe" d="M2586.33,-948.79C2586.33,-948.79 2366.67,-948.79 2366.67,-948.79 2362.83,-948.79 2359,-944.96 2359,-941.13 2359,-941.13 2359,-933.46 2359,-933.46 2359,-929.63 2362.83,-925.79 2366.67,-925.79 2366.67,-925.79 2586.33,-925.79 2586.33,-925.79 2590.17,-925.79 2594,-929.63 2594,-933.46 2594,-933.46 2594,-941.13 2594,-941.13 2594,-944.96 2590.17,-948.79 2586.33,-948.79"/>
<text text-anchor="middle" x="2476.5" y="-933.59" font-family="Arial" font-size="14.00" fill="#c6c5fe">editor/managers/VariableManager.ts</text>
</g>
<!-- editor/SegmentBuilder.ts&#45;&gt;editor/managers/VariableManager.ts -->
<g id="edge34" class="edge">
<title>editor/SegmentBuilder.ts&#45;&gt;editor/managers/VariableManager.ts</title>
<path fill="none" stroke="#757575" d="M1435.18,-924.09C1447.19,-924.55 1459.42,-924.98 1471,-925.29 1786.57,-933.92 2158.08,-936.35 2348.66,-937.03"/>
<polygon fill="#757575" stroke="#757575" points="2348.7,-940.53 2358.71,-937.06 2348.72,-933.53 2348.7,-940.53"/>
</g>
<!-- editor/segments/ColorBackgroundSegment.ts -->
<g id="node23" class="node">
<title>editor/segments/ColorBackgroundSegment.ts</title>
<path fill="none" stroke="#c6c5fe" d="M1224.33,-890.79C1224.33,-890.79 949.67,-890.79 949.67,-890.79 945.83,-890.79 942,-886.96 942,-883.13 942,-883.13 942,-875.46 942,-875.46 942,-871.63 945.83,-867.79 949.67,-867.79 949.67,-867.79 1224.33,-867.79 1224.33,-867.79 1228.17,-867.79 1232,-871.63 1232,-875.46 1232,-875.46 1232,-883.13 1232,-883.13 1232,-886.96 1228.17,-890.79 1224.33,-890.79"/>
<text text-anchor="middle" x="1087" y="-875.59" font-family="Arial" font-size="14.00" fill="#c6c5fe">editor/segments/ColorBackgroundSegment.ts</text>
</g>
<!-- editor/factories/SegmentFactory.ts&#45;&gt;editor/segments/ColorBackgroundSegment.ts -->
<g id="edge43" class="edge">
<title>editor/factories/SegmentFactory.ts&#45;&gt;editor/segments/ColorBackgroundSegment.ts</title>
<path fill="none" stroke="#757575" d="M872.55,-849.85C894.11,-852.95 917.44,-856.28 939,-859.29 955.63,-861.62 973.33,-864.06 990.47,-866.4"/>
<polygon fill="#757575" stroke="#757575" points="990.1,-869.89 1000.48,-867.77 991.05,-862.95 990.1,-869.89"/>
</g>
<!-- editor/segments/ImageBackgroundSegment.ts -->
<g id="node24" class="node">
<title>editor/segments/ImageBackgroundSegment.ts</title>
<path fill="none" stroke="#c6c5fe" d="M1227.33,-849.79C1227.33,-849.79 946.67,-849.79 946.67,-849.79 942.83,-849.79 939,-845.96 939,-842.13 939,-842.13 939,-834.46 939,-834.46 939,-830.63 942.83,-826.79 946.67,-826.79 946.67,-826.79 1227.33,-826.79 1227.33,-826.79 1231.17,-826.79 1235,-830.63 1235,-834.46 1235,-834.46 1235,-842.13 1235,-842.13 1235,-845.96 1231.17,-849.79 1227.33,-849.79"/>
<text text-anchor="middle" x="1087" y="-834.59" font-family="Arial" font-size="14.00" fill="#c6c5fe">editor/segments/ImageBackgroundSegment.ts</text>
</g>
<!-- editor/factories/SegmentFactory.ts&#45;&gt;editor/segments/ImageBackgroundSegment.ts -->
<g id="edge44" class="edge">
<title>editor/factories/SegmentFactory.ts&#45;&gt;editor/segments/ImageBackgroundSegment.ts</title>
<path fill="none" stroke="#757575" d="M903.35,-838.29C911.69,-838.29 920.19,-838.29 928.75,-838.29"/>
<polygon fill="#757575" stroke="#757575" points="928.8,-841.79 938.8,-838.29 928.8,-834.79 928.8,-841.79"/>
</g>
<!-- editor/segments/ProjectVideoSegment.ts -->
<g id="node25" class="node">
<title>editor/segments/ProjectVideoSegment.ts</title>
<path fill="none" stroke="#c6c5fe" d="M1210.83,-808.79C1210.83,-808.79 963.17,-808.79 963.17,-808.79 959.33,-808.79 955.5,-804.96 955.5,-801.13 955.5,-801.13 955.5,-793.46 955.5,-793.46 955.5,-789.63 959.33,-785.79 963.17,-785.79 963.17,-785.79 1210.83,-785.79 1210.83,-785.79 1214.67,-785.79 1218.5,-789.63 1218.5,-793.46 1218.5,-793.46 1218.5,-801.13 1218.5,-801.13 1218.5,-804.96 1214.67,-808.79 1210.83,-808.79"/>
<text text-anchor="middle" x="1087" y="-793.59" font-family="Arial" font-size="14.00" fill="#c6c5fe">editor/segments/ProjectVideoSegment.ts</text>
</g>
<!-- editor/factories/SegmentFactory.ts&#45;&gt;editor/segments/ProjectVideoSegment.ts -->
<g id="edge45" class="edge">
<title>editor/factories/SegmentFactory.ts&#45;&gt;editor/segments/ProjectVideoSegment.ts</title>
<path fill="none" stroke="#757575" d="M875.4,-826.76C912.22,-821.61 955.78,-815.52 993.69,-810.21"/>
<polygon fill="#757575" stroke="#757575" points="994.3,-813.66 1003.71,-808.81 993.33,-806.73 994.3,-813.66"/>
</g>
<!-- editor/segments/VideoSegment.ts -->
<g id="node26" class="node">
<title>editor/segments/VideoSegment.ts</title>
<path fill="none" stroke="#c6c5fe" d="M1189.83,-931.79C1189.83,-931.79 984.17,-931.79 984.17,-931.79 980.33,-931.79 976.5,-927.96 976.5,-924.13 976.5,-924.13 976.5,-916.46 976.5,-916.46 976.5,-912.63 980.33,-908.79 984.17,-908.79 984.17,-908.79 1189.83,-908.79 1189.83,-908.79 1193.67,-908.79 1197.5,-912.63 1197.5,-916.46 1197.5,-916.46 1197.5,-924.13 1197.5,-924.13 1197.5,-927.96 1193.67,-931.79 1189.83,-931.79"/>
<text text-anchor="middle" x="1087" y="-916.59" font-family="Arial" font-size="14.00" fill="#c6c5fe">editor/segments/VideoSegment.ts</text>
</g>
<!-- editor/factories/SegmentFactory.ts&#45;&gt;editor/segments/VideoSegment.ts -->
<g id="edge46" class="edge">
<title>editor/factories/SegmentFactory.ts&#45;&gt;editor/segments/VideoSegment.ts</title>
<path fill="none" stroke="#757575" d="M815.09,-849.88C843.12,-864.06 893.33,-887.73 939,-900.29 948.03,-902.78 957.46,-904.96 967,-906.88"/>
<polygon fill="#757575" stroke="#757575" points="966.48,-910.34 976.96,-908.78 967.8,-903.46 966.48,-910.34"/>
</g>
<!-- director/TemplateDirector.ts -->
<g id="node13" class="node">
<title>director/TemplateDirector.ts</title>
<path fill="none" stroke="#c6c5fe" d="M370.33,-452.79C370.33,-452.79 203.67,-452.79 203.67,-452.79 199.83,-452.79 196,-448.96 196,-445.13 196,-445.13 196,-437.46 196,-437.46 196,-433.63 199.83,-429.79 203.67,-429.79 203.67,-429.79 370.33,-429.79 370.33,-429.79 374.17,-429.79 378,-433.63 378,-437.46 378,-437.46 378,-445.13 378,-445.13 378,-448.96 374.17,-452.79 370.33,-452.79"/>
<text text-anchor="middle" x="287" y="-437.59" font-family="Arial" font-size="14.00" fill="#c6c5fe">director/TemplateDirector.ts</text>
</g>
<!-- director/TemplateDirector.ts&#45;&gt;core/models/Project.ts -->
<g id="edge11" class="edge">
<title>director/TemplateDirector.ts&#45;&gt;core/models/Project.ts</title>
<path fill="none" stroke="#757575" d="M289.06,-452.9C298.98,-554.28 384.6,-1285.29 791,-1285.29 791,-1285.29 791,-1285.29 2163.5,-1285.29 2362.16,-1285.29 2439.28,-1343.16 2608,-1238.29 2670.09,-1199.7 2704.93,-1114.65 2718.41,-1074.75"/>
<polygon fill="#757575" stroke="#757575" points="2721.83,-1075.58 2721.59,-1064.99 2715.17,-1073.41 2721.83,-1075.58"/>
</g>
<!-- director/TemplateDirector.ts&#45;&gt;core/models/Template.ts -->
<g id="edge12" class="edge">
<title>director/TemplateDirector.ts&#45;&gt;core/models/Template.ts</title>
<path fill="none" stroke="#757575" d="M296.56,-429.56C315,-405.26 361.1,-349.51 414,-323.29 737.51,-162.97 1656.21,-82.51 2016,-52.29 2279.44,-30.17 2425.57,81.04 2608,-110.29 2719.68,-227.42 2725.2,-779.04 2725.1,-895.62"/>
<polygon fill="#757575" stroke="#757575" points="2721.6,-895.78 2725.08,-905.79 2728.6,-895.8 2721.6,-895.78"/>
</g>
<!-- director/TemplateDirector.ts&#45;&gt;director/TemplateConcreteBuilder.ts -->
<g id="edge13" class="edge">
<title>director/TemplateDirector.ts&#45;&gt;director/TemplateConcreteBuilder.ts</title>
<path fill="none" stroke="#757575" d="M298.96,-452.96C336.99,-493.44 463.52,-628.12 510.62,-678.27"/>
<polygon fill="#757575" stroke="#757575" points="508.08,-680.67 517.48,-685.56 513.18,-675.88 508.08,-680.67"/>
</g>
<!-- director/TemplateDirector.ts&#45;&gt;platform/ffmpeg/AbstractFFmpeg.ts -->
<g id="edge17" class="edge">
<title>director/TemplateDirector.ts&#45;&gt;platform/ffmpeg/AbstractFFmpeg.ts</title>
<path fill="none" stroke="#757575" d="M378.41,-441.29C479.1,-441.29 646.69,-441.29 791,-441.29 791,-441.29 791,-441.29 1578.5,-441.29 1674.12,-441.29 1942.25,-480.96 2079.02,-502.21"/>
<polygon fill="#757575" stroke="#757575" points="2078.61,-505.69 2089.03,-503.77 2079.69,-498.78 2078.61,-505.69"/>
</g>
<!-- director/TemplateDirector.ts&#45;&gt;platform/filesystem/AbstractFilesystem.ts -->
<g id="edge18" class="edge">
<title>director/TemplateDirector.ts&#45;&gt;platform/filesystem/AbstractFilesystem.ts</title>
<path fill="none" stroke="#757575" d="M288.88,-429.68C293.03,-384.26 314.73,-217.7 414,-145.29 656.32,31.45 786.06,-83.29 1086,-83.29 1086,-83.29 1086,-83.29 1851,-83.29 2054.73,-83.29 2128.19,-8.42 2309,-102.29 2392.87,-145.84 2446.96,-252.81 2466.89,-298.29"/>
<polygon fill="#757575" stroke="#757575" points="2463.77,-299.91 2470.92,-307.74 2470.21,-297.16 2463.77,-299.91"/>
</g>
<!-- director/TemplateDirector.ts&#45;&gt;platform/logging/AbstractLogger.ts -->
<g id="edge19" class="edge">
<title>director/TemplateDirector.ts&#45;&gt;platform/logging/AbstractLogger.ts</title>
<path fill="none" stroke="#757575" d="M309.67,-429.67C334.28,-416.95 375.97,-396.83 414,-385.29 576.71,-335.94 620.97,-320.29 791,-320.29 791,-320.29 791,-320.29 1578.5,-320.29 1903.96,-320.29 1985.89,-332.31 2309,-371.29 2335.49,-374.49 2364.28,-378.46 2390.36,-382.25"/>
<polygon fill="#757575" stroke="#757575" points="2390.19,-385.76 2400.59,-383.74 2391.2,-378.83 2390.19,-385.76"/>
</g>
<!-- editor/MusicComposer.ts -->
<g id="node14" class="node">
<title>editor/MusicComposer.ts</title>
<path fill="none" stroke="#c6c5fe" d="M1925.83,-371.79C1925.83,-371.79 1774.17,-371.79 1774.17,-371.79 1770.33,-371.79 1766.5,-367.96 1766.5,-364.13 1766.5,-364.13 1766.5,-356.46 1766.5,-356.46 1766.5,-352.63 1770.33,-348.79 1774.17,-348.79 1774.17,-348.79 1925.83,-348.79 1925.83,-348.79 1929.67,-348.79 1933.5,-352.63 1933.5,-356.46 1933.5,-356.46 1933.5,-364.13 1933.5,-364.13 1933.5,-367.96 1929.67,-371.79 1925.83,-371.79"/>
<text text-anchor="middle" x="1850" y="-356.59" font-family="Arial" font-size="14.00" fill="#c6c5fe">editor/MusicComposer.ts</text>
</g>
<!-- director/TemplateDirector.ts&#45;&gt;editor/MusicComposer.ts -->
<g id="edge14" class="edge">
<title>director/TemplateDirector.ts&#45;&gt;editor/MusicComposer.ts</title>
<path fill="none" stroke="#757575" d="M347.36,-429.78C441.17,-412.61 629.66,-382.29 791,-382.29 791,-382.29 791,-382.29 1354,-382.29 1494.34,-382.29 1656.85,-373.36 1756.27,-366.88"/>
<polygon fill="#757575" stroke="#757575" points="1756.53,-370.37 1766.28,-366.22 1756.08,-363.38 1756.53,-370.37"/>
</g>
<!-- editor/VideoEditor.ts -->
<g id="node15" class="node">
<title>editor/VideoEditor.ts</title>
<path fill="none" stroke="#c6c5fe" d="M1638.33,-566.79C1638.33,-566.79 1516.67,-566.79 1516.67,-566.79 1512.83,-566.79 1509,-562.96 1509,-559.13 1509,-559.13 1509,-551.46 1509,-551.46 1509,-547.63 1512.83,-543.79 1516.67,-543.79 1516.67,-543.79 1638.33,-543.79 1638.33,-543.79 1642.17,-543.79 1646,-547.63 1646,-551.46 1646,-551.46 1646,-559.13 1646,-559.13 1646,-562.96 1642.17,-566.79 1638.33,-566.79"/>
<text text-anchor="middle" x="1577.5" y="-551.59" font-family="Arial" font-size="14.00" fill="#c6c5fe">editor/VideoEditor.ts</text>
</g>
<!-- director/TemplateDirector.ts&#45;&gt;editor/VideoEditor.ts -->
<g id="edge15" class="edge">
<title>director/TemplateDirector.ts&#45;&gt;editor/VideoEditor.ts</title>
<path fill="none" stroke="#757575" d="M378.14,-451.58C390.19,-452.88 402.39,-454.15 414,-455.29 822.27,-495.53 1312.12,-534.69 1498.96,-549.29"/>
<polygon fill="#757575" stroke="#757575" points="1498.72,-552.79 1508.96,-550.07 1499.26,-545.81 1498.72,-552.79"/>
</g>
<!-- platform/EventManager.ts -->
<g id="node16" class="node">
<title>platform/EventManager.ts</title>
<path fill="none" stroke="#cfffac" d="M607.83,-749.79C607.83,-749.79 451.17,-749.79 451.17,-749.79 447.33,-749.79 443.5,-745.96 443.5,-742.13 443.5,-742.13 443.5,-734.46 443.5,-734.46 443.5,-730.63 447.33,-726.79 451.17,-726.79 451.17,-726.79 607.83,-726.79 607.83,-726.79 611.67,-726.79 615.5,-730.63 615.5,-734.46 615.5,-734.46 615.5,-742.13 615.5,-742.13 615.5,-745.96 611.67,-749.79 607.83,-749.79"/>
<text text-anchor="middle" x="529.5" y="-734.59" font-family="Arial" font-size="14.00" fill="#cfffac">platform/EventManager.ts</text>
</g>
<!-- director/TemplateDirector.ts&#45;&gt;platform/EventManager.ts -->
<g id="edge16" class="edge">
<title>director/TemplateDirector.ts&#45;&gt;platform/EventManager.ts</title>
<path fill="none" stroke="#757575" d="M289.44,-452.84C295.46,-495.81 322.69,-647.66 414,-718.29 419.93,-722.88 426.54,-726.55 433.52,-729.49"/>
<polygon fill="#757575" stroke="#757575" points="432.64,-732.89 443.23,-733.04 435.05,-726.32 432.64,-732.89"/>
</g>
<!-- editor/MusicComposer.ts&#45;&gt;core/helpers/FormatHelper.ts -->
<g id="edge20" class="edge">
<title>editor/MusicComposer.ts&#45;&gt;core/helpers/FormatHelper.ts</title>
<path fill="none" stroke="#757575" d="M1933.7,-366.54C1949.5,-369.55 1965.59,-373.93 1980,-380.29 1998.79,-388.6 1997.3,-400.78 2016,-409.29 2028.81,-415.13 2042.8,-419.66 2056.89,-423.17"/>
<polygon fill="#757575" stroke="#757575" points="2056.12,-426.58 2066.65,-425.44 2057.71,-419.76 2056.12,-426.58"/>
</g>
<!-- editor/MusicComposer.ts&#45;&gt;core/models/Project.ts -->
<g id="edge21" class="edge">
<title>editor/MusicComposer.ts&#45;&gt;core/models/Project.ts</title>
<path fill="none" stroke="#757575" d="M1933.51,-361.04C1950.11,-364.36 1966.56,-370.26 1980,-380.29 2009.95,-402.65 1985.81,-434.26 2016,-456.29 2122.12,-533.73 2191.84,-435.86 2309,-495.29 2480.28,-582.19 2513.21,-640.25 2608,-807.29 2637.8,-859.81 2618.23,-883.69 2644,-938.29 2661.21,-974.75 2689.9,-1012.01 2708.12,-1033.88"/>
<polygon fill="#757575" stroke="#757575" points="2705.63,-1036.36 2714.77,-1041.74 2710.98,-1031.84 2705.63,-1036.36"/>
</g>
<!-- editor/MusicComposer.ts&#45;&gt;core/models/Template.ts -->
<g id="edge22" class="edge">
<title>editor/MusicComposer.ts&#45;&gt;core/models/Template.ts</title>
<path fill="none" stroke="#757575" d="M1885.09,-348.72C1914.86,-336.81 1956.84,-315.28 1980,-282.29 2026.88,-215.53 1952.91,-154.02 2016,-102.29 2116.71,-19.73 2184.22,-65.04 2309,-102.29 2461.26,-147.75 2519.77,-166.14 2608,-298.29 2676.05,-400.22 2714.63,-798.13 2723.18,-895.64"/>
<polygon fill="#757575" stroke="#757575" points="2719.7,-896.11 2724.05,-905.77 2726.68,-895.5 2719.7,-896.11"/>
</g>
<!-- editor/MusicComposer.ts&#45;&gt;platform/ffmpeg/AbstractFFmpeg.ts -->
<g id="edge23" class="edge">
<title>editor/MusicComposer.ts&#45;&gt;platform/ffmpeg/AbstractFFmpeg.ts</title>
<path fill="none" stroke="#757575" d="M1933.82,-359.67C1950.59,-363.04 1967.03,-369.31 1980,-380.29 2018.93,-413.27 1977.45,-455.87 2016,-489.29 2022.69,-495.1 2030.22,-499.81 2038.25,-503.61"/>
<polygon fill="#757575" stroke="#757575" points="2036.92,-506.85 2047.49,-507.54 2039.66,-500.41 2036.92,-506.85"/>
</g>
<!-- editor/MusicComposer.ts&#45;&gt;platform/filesystem/AbstractFilesystem.ts -->
<g id="edge25" class="edge">
<title>editor/MusicComposer.ts&#45;&gt;platform/filesystem/AbstractFilesystem.ts</title>
<path fill="none" stroke="#757575" d="M1933.61,-354.87C2035.74,-348.17 2211.17,-336.65 2334.71,-328.54"/>
<polygon fill="#757575" stroke="#757575" points="2335.25,-332.01 2345,-327.86 2334.79,-325.02 2335.25,-332.01"/>
</g>
<!-- editor/MusicComposer.ts&#45;&gt;platform/logging/AbstractLogger.ts -->
<g id="edge26" class="edge">
<title>editor/MusicComposer.ts&#45;&gt;platform/logging/AbstractLogger.ts</title>
<path fill="none" stroke="#757575" d="M1933.66,-366.04C1959.97,-367.8 1989.2,-369.7 2016,-371.29 2131.1,-378.14 2262.48,-384.89 2355.19,-389.48"/>
<polygon fill="#757575" stroke="#757575" points="2355.29,-392.99 2365.46,-389.99 2355.64,-386 2355.29,-392.99"/>
</g>
<!-- platform/ffmpeg/AbstractMusic.ts -->
<g id="node17" class="node">
<title>platform/ffmpeg/AbstractMusic.ts</title>
<path fill="none" stroke="#c6c5fe" d="M2262.33,-214.79C2262.33,-214.79 2062.67,-214.79 2062.67,-214.79 2058.83,-214.79 2055,-210.96 2055,-207.13 2055,-207.13 2055,-199.46 2055,-199.46 2055,-195.63 2058.83,-191.79 2062.67,-191.79 2062.67,-191.79 2262.33,-191.79 2262.33,-191.79 2266.17,-191.79 2270,-195.63 2270,-199.46 2270,-199.46 2270,-207.13 2270,-207.13 2270,-210.96 2266.17,-214.79 2262.33,-214.79"/>
<text text-anchor="middle" x="2162.5" y="-199.59" font-family="Arial" font-size="14.00" fill="#c6c5fe">platform/ffmpeg/AbstractMusic.ts</text>
</g>
<!-- editor/MusicComposer.ts&#45;&gt;platform/ffmpeg/AbstractMusic.ts -->
<g id="edge24" class="edge">
<title>editor/MusicComposer.ts&#45;&gt;platform/ffmpeg/AbstractMusic.ts</title>
<path fill="none" stroke="#757575" d="M1873.83,-348.75C1928.45,-321.13 2066.76,-251.2 2129.58,-219.43"/>
<polygon fill="#757575" stroke="#757575" points="2131.29,-222.49 2138.63,-214.86 2128.13,-216.24 2131.29,-222.49"/>
</g>
<!-- editor/VideoEditor.ts&#45;&gt;core/models/Project.ts -->
<g id="edge37" class="edge">
<title>editor/VideoEditor.ts&#45;&gt;core/models/Project.ts</title>
<path fill="none" stroke="#757575" d="M1596.69,-566.83C1623.08,-583.21 1673.88,-613.43 1720,-633.29 2100.57,-797.19 2262.53,-688.5 2608,-917.29 2654.86,-948.33 2693.8,-1003.2 2712.69,-1032.87"/>
<polygon fill="#757575" stroke="#757575" points="2709.85,-1034.92 2718.11,-1041.56 2715.79,-1031.22 2709.85,-1034.92"/>
</g>
<!-- editor/VideoEditor.ts&#45;&gt;core/models/Template.ts -->
<g id="edge38" class="edge">
<title>editor/VideoEditor.ts&#45;&gt;core/models/Template.ts</title>
<path fill="none" stroke="#757575" d="M1617.72,-566.85C1646.06,-575.08 1685.29,-586.25 1720,-595.29 2112.64,-697.62 2250.84,-614.74 2608,-807.29 2650.59,-830.25 2689.2,-872.63 2709.66,-897.55"/>
<polygon fill="#757575" stroke="#757575" points="2707.12,-899.98 2716.11,-905.58 2712.57,-895.59 2707.12,-899.98"/>
</g>
<!-- editor/VideoEditor.ts&#45;&gt;platform/ffmpeg/AbstractFFmpeg.ts -->
<g id="edge40" class="edge">
<title>editor/VideoEditor.ts&#45;&gt;platform/ffmpeg/AbstractFFmpeg.ts</title>
<path fill="none" stroke="#757575" d="M1646.11,-548.05C1669.49,-545.69 1695.88,-543.2 1720,-541.29 1826.87,-532.86 1948.49,-525.9 2036.99,-521.3"/>
<polygon fill="#757575" stroke="#757575" points="2037.26,-524.79 2047.07,-520.78 2036.9,-517.8 2037.26,-524.79"/>
</g>
<!-- editor/VideoEditor.ts&#45;&gt;platform/filesystem/AbstractFilesystem.ts -->
<g id="edge41" class="edge">
<title>editor/VideoEditor.ts&#45;&gt;platform/filesystem/AbstractFilesystem.ts</title>
<path fill="none" stroke="#757575" d="M1646.07,-558.18C1817.36,-564.86 2258.63,-577.79 2309,-536.29 2365.93,-489.4 2297.75,-430.93 2345,-374.29 2361.2,-354.88 2385.44,-342.19 2408.65,-333.95"/>
<polygon fill="#757575" stroke="#757575" points="2409.77,-337.27 2418.16,-330.79 2407.56,-330.62 2409.77,-337.27"/>
</g>
<!-- editor/VideoEditor.ts&#45;&gt;platform/logging/AbstractLogger.ts -->
<g id="edge42" class="edge">
<title>editor/VideoEditor.ts&#45;&gt;platform/logging/AbstractLogger.ts</title>
<path fill="none" stroke="#757575" d="M1646.28,-563.58C1803.99,-581.76 2191.11,-619.65 2309,-569.29 2383.08,-537.65 2439.96,-455.08 2463.57,-416.16"/>
<polygon fill="#757575" stroke="#757575" points="2466.76,-417.65 2468.85,-407.26 2460.74,-414.08 2466.76,-417.65"/>
</g>
<!-- editor/VideoEditor.ts&#45;&gt;editor/MusicComposer.ts -->
<g id="edge39" class="edge">
<title>editor/VideoEditor.ts&#45;&gt;editor/MusicComposer.ts</title>
<path fill="none" stroke="#757575" d="M1584.13,-543.42C1600.18,-511.03 1649.57,-420.84 1720,-380.29 1731.19,-373.85 1743.79,-369.29 1756.62,-366.08"/>
<polygon fill="#757575" stroke="#757575" points="1757.45,-369.48 1766.45,-363.89 1755.93,-362.65 1757.45,-369.48"/>
</g>
<!-- platform/ffmpeg/AbstractMusic.ts&#45;&gt;platform/filesystem/AbstractFilesystem.ts -->
<g id="edge78" class="edge">
<title>platform/ffmpeg/AbstractMusic.ts&#45;&gt;platform/filesystem/AbstractFilesystem.ts</title>
<path fill="none" stroke="#757575" d="M2253.92,-214.83C2272.42,-218.48 2291.56,-223.2 2309,-229.29 2361.79,-247.74 2417.98,-281.44 2449.72,-301.96"/>
<polygon fill="#757575" stroke="#757575" points="2448.09,-305.08 2458.38,-307.62 2451.92,-299.22 2448.09,-305.08"/>
</g>
<!-- platform/ffmpeg/AbstractMusic.ts&#45;&gt;platform/logging/AbstractLogger.ts -->
<g id="edge79" class="edge">
<title>platform/ffmpeg/AbstractMusic.ts&#45;&gt;platform/logging/AbstractLogger.ts</title>
<path fill="none" stroke="#757575" d="M2270.19,-208.49C2284.39,-212.97 2297.87,-219.61 2309,-229.29 2347.82,-263.05 2310.28,-301.34 2345,-339.29 2363.07,-359.05 2389.29,-372.12 2413.49,-380.62"/>
<polygon fill="#757575" stroke="#757575" points="2412.41,-383.95 2423,-383.77 2414.61,-377.31 2412.41,-383.95"/>
</g>
<!-- editor/managers/AssetManager.ts&#45;&gt;core/models/Segment.ts -->
<g id="edge47" class="edge">
<title>editor/managers/AssetManager.ts&#45;&gt;core/models/Segment.ts</title>
<path fill="none" stroke="#757575" d="M2182.08,-910.85C2234.85,-943.66 2385.79,-1037.51 2448.09,-1076.25"/>
<polygon fill="#757575" stroke="#757575" points="2446.28,-1079.25 2456.62,-1081.55 2449.98,-1073.3 2446.28,-1079.25"/>
</g>
<!-- editor/managers/AssetManager.ts&#45;&gt;core/models/Template.ts -->
<g id="edge48" class="edge">
<title>editor/managers/AssetManager.ts&#45;&gt;core/models/Template.ts</title>
<path fill="none" stroke="#757575" d="M2272.76,-902.8C2377.84,-906.16 2534.86,-911.2 2633.52,-914.36"/>
<polygon fill="#757575" stroke="#757575" points="2633.66,-917.87 2643.77,-914.69 2633.88,-910.87 2633.66,-917.87"/>
</g>
<!-- editor/managers/AssetManager.ts&#45;&gt;platform/filesystem/AbstractFilesystem.ts -->
<g id="edge50" class="edge">
<title>editor/managers/AssetManager.ts&#45;&gt;platform/filesystem/AbstractFilesystem.ts</title>
<path fill="none" stroke="#757575" d="M2174.28,-887.79C2202.16,-857.28 2276.68,-770.65 2309,-683.29 2356.98,-553.62 2261.99,-484.87 2345,-374.29 2359.59,-354.85 2382.38,-342.22 2404.86,-334.05"/>
<polygon fill="#757575" stroke="#757575" points="2406.09,-337.32 2414.45,-330.81 2403.85,-330.69 2406.09,-337.32"/>
</g>
<!-- editor/managers/AssetManager.ts&#45;&gt;platform/logging/AbstractLogger.ts -->
<g id="edge51" class="edge">
<title>editor/managers/AssetManager.ts&#45;&gt;platform/logging/AbstractLogger.ts</title>
<path fill="none" stroke="#757575" d="M2187.84,-887.77C2219.63,-871.61 2275.22,-839.41 2309,-797.29 2408.64,-673.07 2457.08,-480.85 2471.08,-416.84"/>
<polygon fill="#757575" stroke="#757575" points="2474.5,-417.57 2473.17,-407.06 2467.66,-416.11 2474.5,-417.57"/>
</g>
<!-- editor/managers/AssetManager.ts&#45;&gt;editor/managers/VariableManager.ts -->
<g id="edge49" class="edge">
<title>editor/managers/AssetManager.ts&#45;&gt;editor/managers/VariableManager.ts</title>
<path fill="none" stroke="#757575" d="M2257.96,-910.8C2293.53,-915.13 2334.19,-920.08 2370.66,-924.52"/>
<polygon fill="#757575" stroke="#757575" points="2370.48,-928.03 2380.83,-925.76 2371.32,-921.08 2370.48,-928.03"/>
</g>
<!-- editor/managers/FilterManager.ts&#45;&gt;core/models/Segment.ts -->
<g id="edge52" class="edge">
<title>editor/managers/FilterManager.ts&#45;&gt;core/models/Segment.ts</title>
<path fill="none" stroke="#757575" d="M1940.47,-1028.8C1964.96,-1031.92 1991.5,-1035.27 2016,-1038.29 2143.58,-1054.05 2291.18,-1071.59 2383.94,-1082.54"/>
<polygon fill="#757575" stroke="#757575" points="2383.79,-1086.05 2394.13,-1083.74 2384.61,-1079.09 2383.79,-1086.05"/>
</g>
<!-- editor/managers/FilterManager.ts&#45;&gt;core/models/Template.ts -->
<g id="edge53" class="edge">
<title>editor/managers/FilterManager.ts&#45;&gt;core/models/Template.ts</title>
<path fill="none" stroke="#757575" d="M1938.68,-1005.76C1963.63,-1002.72 1990.86,-999.64 2016,-997.29 2278.54,-972.75 2349.65,-1011.05 2608,-958.29 2636.05,-952.57 2666.53,-941.72 2689.35,-932.63"/>
<polygon fill="#757575" stroke="#757575" points="2690.68,-935.86 2698.63,-928.86 2688.05,-929.38 2690.68,-935.86"/>
</g>
<!-- editor/managers/FilterManager.ts&#45;&gt;editor/managers/FormatterManager.ts -->
<g id="edge54" class="edge">
<title>editor/managers/FilterManager.ts&#45;&gt;editor/managers/FormatterManager.ts</title>
<path fill="none" stroke="#757575" d="M1958.29,-1017.29C1981.3,-1017.29 2005.86,-1017.29 2029.68,-1017.29"/>
<polygon fill="#757575" stroke="#757575" points="2029.83,-1020.79 2039.83,-1017.29 2029.83,-1013.79 2029.83,-1020.79"/>
</g>
<!-- editor/managers/FormatterManager.ts&#45;&gt;core/models/Project.ts -->
<g id="edge55" class="edge">
<title>editor/managers/FormatterManager.ts&#45;&gt;core/models/Project.ts</title>
<path fill="none" stroke="#757575" d="M2285.05,-1025.38C2305.08,-1026.7 2325.62,-1028.04 2345,-1029.29 2446.48,-1035.85 2563.23,-1043.2 2640.24,-1048.01"/>
<polygon fill="#757575" stroke="#757575" points="2640.17,-1051.51 2650.37,-1048.65 2640.61,-1044.53 2640.17,-1051.51"/>
</g>
<!-- editor/managers/FormatterManager.ts&#45;&gt;core/models/Segment.ts -->
<g id="edge56" class="edge">
<title>editor/managers/FormatterManager.ts&#45;&gt;core/models/Segment.ts</title>
<path fill="none" stroke="#757575" d="M2260.17,-1028.81C2276.79,-1032.4 2293.64,-1037.12 2309,-1043.29 2326.84,-1050.47 2327.23,-1059.94 2345,-1067.29 2357.45,-1072.45 2371.01,-1076.6 2384.52,-1079.95"/>
<polygon fill="#757575" stroke="#757575" points="2383.79,-1083.37 2394.33,-1082.24 2385.39,-1076.55 2383.79,-1083.37"/>
</g>
<!-- editor/managers/FormatterManager.ts&#45;&gt;core/models/Template.ts -->
<g id="edge57" class="edge">
<title>editor/managers/FormatterManager.ts&#45;&gt;core/models/Template.ts</title>
<path fill="none" stroke="#757575" d="M2285.35,-1026.35C2376.4,-1029.29 2502.77,-1025.14 2608,-991.29 2644.92,-979.42 2681.79,-953.11 2704,-935.28"/>
<polygon fill="#757575" stroke="#757575" points="2706.25,-937.96 2711.76,-928.91 2701.81,-932.55 2706.25,-937.96"/>
</g>
<!-- editor/managers/FormatterManager.ts&#45;&gt;platform/logging/AbstractLogger.ts -->
<g id="edge59" class="edge">
<title>editor/managers/FormatterManager.ts&#45;&gt;platform/logging/AbstractLogger.ts</title>
<path fill="none" stroke="#757575" d="M2191.22,-1005.77C2223.99,-990.78 2277.97,-961.54 2309,-920.29 2433.39,-754.94 2466.45,-494.02 2473.71,-417.23"/>
<polygon fill="#757575" stroke="#757575" points="2477.23,-417.17 2474.63,-406.9 2470.26,-416.55 2477.23,-417.17"/>
</g>
<!-- editor/managers/FormatterManager.ts&#45;&gt;editor/managers/VariableManager.ts -->
<g id="edge58" class="edge">
<title>editor/managers/FormatterManager.ts&#45;&gt;editor/managers/VariableManager.ts</title>
<path fill="none" stroke="#757575" d="M2208.53,-1005.75C2264.64,-991.36 2360.46,-966.79 2420.75,-951.33"/>
<polygon fill="#757575" stroke="#757575" points="2421.66,-954.71 2430.48,-948.84 2419.92,-947.93 2421.66,-954.71"/>
</g>
<!-- editor/managers/MapManager.ts&#45;&gt;core/models/Segment.ts -->
<g id="edge60" class="edge">
<title>editor/managers/MapManager.ts&#45;&gt;core/models/Segment.ts</title>
<path fill="none" stroke="#757575" d="M1684.04,-1061.53C1861.6,-1068.66 2217.07,-1082.92 2384.42,-1089.64"/>
<polygon fill="#757575" stroke="#757575" points="2384.3,-1093.14 2394.43,-1090.04 2384.58,-1086.14 2384.3,-1093.14"/>
</g>
<!-- editor/managers/MapManager.ts&#45;&gt;core/models/Template.ts -->
<g id="edge61" class="edge">
<title>editor/managers/MapManager.ts&#45;&gt;core/models/Template.ts</title>
<path fill="none" stroke="#757575" d="M1634.51,-1068.82C1825.15,-1106.77 2445.99,-1219.58 2608,-1114.29 2641.03,-1092.83 2624.63,-1067.6 2644,-1033.29 2664.04,-997.79 2692.14,-959.57 2709.43,-937.07"/>
<polygon fill="#757575" stroke="#757575" points="2712.33,-939.04 2715.7,-928.99 2706.8,-934.75 2712.33,-939.04"/>
</g>
<!-- editor/managers/MapManager.ts&#45;&gt;editor/managers/FilterManager.ts -->
<g id="edge62" class="edge">
<title>editor/managers/MapManager.ts&#45;&gt;editor/managers/FilterManager.ts</title>
<path fill="none" stroke="#757575" d="M1656.38,-1045.78C1689.05,-1040.95 1727.21,-1035.3 1760.9,-1030.32"/>
<polygon fill="#757575" stroke="#757575" points="1761.82,-1033.72 1771.2,-1028.8 1760.8,-1026.8 1761.82,-1033.72"/>
</g>
<!-- editor/managers/MapManager.ts&#45;&gt;editor/managers/FormatterManager.ts -->
<g id="edge63" class="edge">
<title>editor/managers/MapManager.ts&#45;&gt;editor/managers/FormatterManager.ts</title>
<path fill="none" stroke="#757575" d="M1684.29,-1054.25C1765.33,-1051.44 1879.84,-1046.45 1980,-1038.29 2006.77,-1036.11 2035.69,-1033.08 2062.41,-1029.99"/>
<polygon fill="#757575" stroke="#757575" points="2063.01,-1033.45 2072.53,-1028.81 2062.2,-1026.49 2063.01,-1033.45"/>
</g>
<!-- editor/managers/VariableManager.ts&#45;&gt;core/models/Project.ts -->
<g id="edge64" class="edge">
<title>editor/managers/VariableManager.ts&#45;&gt;core/models/Project.ts</title>
<path fill="none" stroke="#757575" d="M2502.14,-948.84C2546.59,-969.68 2640.29,-1013.59 2690.88,-1037.3"/>
<polygon fill="#757575" stroke="#757575" points="2689.56,-1040.55 2700.1,-1041.62 2692.53,-1034.21 2689.56,-1040.55"/>
</g>
<!-- editor/managers/VariableManager.ts&#45;&gt;core/models/Template.ts -->
<g id="edge65" class="edge">
<title>editor/managers/VariableManager.ts&#45;&gt;core/models/Template.ts</title>
<path fill="none" stroke="#757575" d="M2594,-927.88C2607.26,-926.81 2620.63,-925.73 2633.5,-924.69"/>
<polygon fill="#757575" stroke="#757575" points="2634.01,-928.16 2643.7,-923.86 2633.45,-921.18 2634.01,-928.16"/>
</g>
<!-- editor/segments/ColorBackgroundSegment.ts&#45;&gt;editor/SegmentBuilder.ts -->
<g id="edge66" class="edge">
<title>editor/segments/ColorBackgroundSegment.ts&#45;&gt;editor/SegmentBuilder.ts</title>
<path fill="none" stroke="#757575" d="M1171.63,-890.84C1192.35,-893.81 1214.5,-897.08 1235,-900.29 1248.43,-902.4 1262.71,-904.75 1276.51,-907.08"/>
<polygon fill="#757575" stroke="#757575" points="1276.01,-910.54 1286.46,-908.76 1277.18,-903.64 1276.01,-910.54"/>
</g>
<!-- editor/segments/ImageBackgroundSegment.ts&#45;&gt;editor/SegmentBuilder.ts -->
<g id="edge67" class="edge">
<title>editor/segments/ImageBackgroundSegment.ts&#45;&gt;editor/SegmentBuilder.ts</title>
<path fill="none" stroke="#757575" d="M1198.1,-849.85C1210.69,-852.4 1223.22,-855.5 1235,-859.29 1267.92,-869.88 1302.7,-889.2 1325.7,-903.26"/>
<polygon fill="#757575" stroke="#757575" points="1323.86,-906.24 1334.2,-908.55 1327.56,-900.3 1323.86,-906.24"/>
</g>
<!-- editor/segments/ProjectVideoSegment.ts&#45;&gt;editor/SegmentBuilder.ts -->
<g id="edge68" class="edge">
<title>editor/segments/ProjectVideoSegment.ts&#45;&gt;editor/SegmentBuilder.ts</title>
<path fill="none" stroke="#757575" d="M1209.17,-808.82C1218.09,-811.41 1226.8,-814.54 1235,-818.29 1277.3,-837.67 1315.76,-877.3 1336.32,-901.06"/>
<polygon fill="#757575" stroke="#757575" points="1333.69,-903.37 1342.82,-908.74 1339.03,-898.84 1333.69,-903.37"/>
</g>
<!-- editor/segments/VideoSegment.ts&#45;&gt;editor/SegmentBuilder.ts -->
<g id="edge69" class="edge">
<title>editor/segments/VideoSegment.ts&#45;&gt;editor/SegmentBuilder.ts</title>
<path fill="none" stroke="#757575" d="M1197.67,-920.29C1218.63,-920.29 1240.37,-920.29 1260.69,-920.29"/>
<polygon fill="#757575" stroke="#757575" points="1260.85,-923.79 1270.85,-920.29 1260.85,-916.79 1260.85,-923.79"/>
</g>
<!-- index.ts -->
<g id="node27" class="node">
<title>index.ts</title>
<path fill="none" stroke="#c6c5fe" d="M152.33,-452.79C152.33,-452.79 104.67,-452.79 104.67,-452.79 100.83,-452.79 97,-448.96 97,-445.13 97,-445.13 97,-437.46 97,-437.46 97,-433.63 100.83,-429.79 104.67,-429.79 104.67,-429.79 152.33,-429.79 152.33,-429.79 156.17,-429.79 160,-433.63 160,-437.46 160,-437.46 160,-445.13 160,-445.13 160,-448.96 156.17,-452.79 152.33,-452.79"/>
<text text-anchor="middle" x="128.5" y="-437.59" font-family="Arial" font-size="14.00" fill="#c6c5fe">index.ts</text>
</g>
<!-- index.ts&#45;&gt;core/types.ts -->
<g id="edge70" class="edge">
<title>index.ts&#45;&gt;core/types.ts</title>
<path fill="none" stroke="#757575" d="M129.22,-453.1C127.38,-557.76 127.67,-1323.29 528.5,-1323.29 528.5,-1323.29 528.5,-1323.29 2477.5,-1323.29 2658.14,-1323.29 2837.3,-1166.94 2894.62,-1112.06"/>
<polygon fill="#757575" stroke="#757575" points="2897.14,-1114.49 2901.89,-1105.02 2892.27,-1109.46 2897.14,-1114.49"/>
</g>
<!-- index.ts&#45;&gt;director/TemplateDirector.ts -->
<g id="edge71" class="edge">
<title>index.ts&#45;&gt;director/TemplateDirector.ts</title>
<path fill="none" stroke="#757575" d="M160.05,-441.29C167.75,-441.29 176.46,-441.29 185.61,-441.29"/>
<polygon fill="#757575" stroke="#757575" points="185.68,-444.79 195.68,-441.29 185.68,-437.79 185.68,-444.79"/>
</g>
<!-- platform/PlatformBridge.ts -->
<g id="node28" class="node">
<title>platform/PlatformBridge.ts</title>
<path fill="none" stroke="#c6c5fe" d="M1656.83,-214.79C1656.83,-214.79 1498.17,-214.79 1498.17,-214.79 1494.33,-214.79 1490.5,-210.96 1490.5,-207.13 1490.5,-207.13 1490.5,-199.46 1490.5,-199.46 1490.5,-195.63 1494.33,-191.79 1498.17,-191.79 1498.17,-191.79 1656.83,-191.79 1656.83,-191.79 1660.67,-191.79 1664.5,-195.63 1664.5,-199.46 1664.5,-199.46 1664.5,-207.13 1664.5,-207.13 1664.5,-210.96 1660.67,-214.79 1656.83,-214.79"/>
<text text-anchor="middle" x="1577.5" y="-199.59" font-family="Arial" font-size="14.00" fill="#c6c5fe">platform/PlatformBridge.ts</text>
</g>
<!-- index.ts&#45;&gt;platform/PlatformBridge.ts -->
<g id="edge72" class="edge">
<title>index.ts&#45;&gt;platform/PlatformBridge.ts</title>
<path fill="none" stroke="#757575" d="M135.87,-429.67C162.35,-382.77 269.07,-207.01 414,-145.29 819.23,27.28 1377.14,-136.06 1533.98,-188.4"/>
<polygon fill="#757575" stroke="#757575" points="1533.13,-191.81 1543.72,-191.69 1535.36,-185.18 1533.13,-191.81"/>
</g>
<!-- platform/ffmpeg/FFmpegNodeAdapter.ts -->
<g id="node30" class="node">
<title>platform/ffmpeg/FFmpegNodeAdapter.ts</title>
<path fill="none" stroke="#c6c5fe" d="M1972.33,-412.79C1972.33,-412.79 1727.67,-412.79 1727.67,-412.79 1723.83,-412.79 1720,-408.96 1720,-405.13 1720,-405.13 1720,-397.46 1720,-397.46 1720,-393.63 1723.83,-389.79 1727.67,-389.79 1727.67,-389.79 1972.33,-389.79 1972.33,-389.79 1976.17,-389.79 1980,-393.63 1980,-397.46 1980,-397.46 1980,-405.13 1980,-405.13 1980,-408.96 1976.17,-412.79 1972.33,-412.79"/>
<text text-anchor="middle" x="1850" y="-397.59" font-family="Arial" font-size="14.00" fill="#c6c5fe">platform/ffmpeg/FFmpegNodeAdapter.ts</text>
</g>
<!-- platform/PlatformBridge.ts&#45;&gt;platform/ffmpeg/FFmpegNodeAdapter.ts -->
<g id="edge74" class="edge">
<title>platform/PlatformBridge.ts&#45;&gt;platform/ffmpeg/FFmpegNodeAdapter.ts</title>
<path fill="none" stroke="#757575" d="M1583.88,-214.81C1599.62,-247.09 1649.01,-338.81 1720,-380.29 1723.48,-382.33 1727.1,-384.18 1730.82,-385.87"/>
<polygon fill="#757575" stroke="#757575" points="1729.69,-389.19 1740.27,-389.73 1732.34,-382.71 1729.69,-389.19"/>
</g>
<!-- platform/ffmpeg/MusicNodeAdapter.ts -->
<g id="node31" class="node">
<title>platform/ffmpeg/MusicNodeAdapter.ts</title>
<path fill="none" stroke="#c6c5fe" d="M1964.83,-214.79C1964.83,-214.79 1735.17,-214.79 1735.17,-214.79 1731.33,-214.79 1727.5,-210.96 1727.5,-207.13 1727.5,-207.13 1727.5,-199.46 1727.5,-199.46 1727.5,-195.63 1731.33,-191.79 1735.17,-191.79 1735.17,-191.79 1964.83,-191.79 1964.83,-191.79 1968.67,-191.79 1972.5,-195.63 1972.5,-199.46 1972.5,-199.46 1972.5,-207.13 1972.5,-207.13 1972.5,-210.96 1968.67,-214.79 1964.83,-214.79"/>
<text text-anchor="middle" x="1850" y="-199.59" font-family="Arial" font-size="14.00" fill="#c6c5fe">platform/ffmpeg/MusicNodeAdapter.ts</text>
</g>
<!-- platform/PlatformBridge.ts&#45;&gt;platform/ffmpeg/MusicNodeAdapter.ts -->
<g id="edge75" class="edge">
<title>platform/PlatformBridge.ts&#45;&gt;platform/ffmpeg/MusicNodeAdapter.ts</title>
<path fill="none" stroke="#757575" d="M1664.83,-203.29C1681.5,-203.29 1699.32,-203.29 1717.07,-203.29"/>
<polygon fill="#757575" stroke="#757575" points="1717.5,-206.79 1727.5,-203.29 1717.5,-199.79 1717.5,-206.79"/>
</g>
<!-- platform/filesystem/FilesystemNodeAdapter.ts -->
<g id="node32" class="node">
<title>platform/filesystem/FilesystemNodeAdapter.ts</title>
<path fill="none" stroke="#c6c5fe" d="M2301.33,-134.79C2301.33,-134.79 2023.67,-134.79 2023.67,-134.79 2019.83,-134.79 2016,-130.96 2016,-127.13 2016,-127.13 2016,-119.46 2016,-119.46 2016,-115.63 2019.83,-111.79 2023.67,-111.79 2023.67,-111.79 2301.33,-111.79 2301.33,-111.79 2305.17,-111.79 2309,-115.63 2309,-119.46 2309,-119.46 2309,-127.13 2309,-127.13 2309,-130.96 2305.17,-134.79 2301.33,-134.79"/>
<text text-anchor="middle" x="2162.5" y="-119.59" font-family="Arial" font-size="14.00" fill="#c6c5fe">platform/filesystem/FilesystemNodeAdapter.ts</text>
</g>
<!-- platform/PlatformBridge.ts&#45;&gt;platform/filesystem/FilesystemNodeAdapter.ts -->
<g id="edge76" class="edge">
<title>platform/PlatformBridge.ts&#45;&gt;platform/filesystem/FilesystemNodeAdapter.ts</title>
<path fill="none" stroke="#757575" d="M1654.84,-191.76C1675.94,-188.62 1698.85,-185.28 1720,-182.29 1837.42,-165.74 1972.58,-147.85 2062.09,-136.16"/>
<polygon fill="#757575" stroke="#757575" points="2062.77,-139.6 2072.24,-134.84 2061.87,-132.66 2062.77,-139.6"/>
</g>
<!-- platform/logging/PinoLogAdapter.ts -->
<g id="node33" class="node">
<title>platform/logging/PinoLogAdapter.ts</title>
<path fill="none" stroke="#c6c5fe" d="M1955.83,-273.79C1955.83,-273.79 1744.17,-273.79 1744.17,-273.79 1740.33,-273.79 1736.5,-269.96 1736.5,-266.13 1736.5,-266.13 1736.5,-258.46 1736.5,-258.46 1736.5,-254.63 1740.33,-250.79 1744.17,-250.79 1744.17,-250.79 1955.83,-250.79 1955.83,-250.79 1959.67,-250.79 1963.5,-254.63 1963.5,-258.46 1963.5,-258.46 1963.5,-266.13 1963.5,-266.13 1963.5,-269.96 1959.67,-273.79 1955.83,-273.79"/>
<text text-anchor="middle" x="1850" y="-258.59" font-family="Arial" font-size="14.00" fill="#c6c5fe">platform/logging/PinoLogAdapter.ts</text>
</g>
<!-- platform/PlatformBridge.ts&#45;&gt;platform/logging/PinoLogAdapter.ts -->
<g id="edge77" class="edge">
<title>platform/PlatformBridge.ts&#45;&gt;platform/logging/PinoLogAdapter.ts</title>
<path fill="none" stroke="#757575" d="M1631.3,-214.81C1675.56,-224.46 1738.87,-238.27 1785.82,-248.51"/>
<polygon fill="#757575" stroke="#757575" points="1785.36,-252 1795.87,-250.71 1786.85,-245.16 1785.36,-252"/>
</g>
<!-- main.ts -->
<g id="node29" class="node">
<title>main.ts</title>
<path fill="none" stroke="#c6c5fe" d="M53.33,-452.79C53.33,-452.79 7.67,-452.79 7.67,-452.79 3.83,-452.79 0,-448.96 0,-445.13 0,-445.13 0,-437.46 0,-437.46 0,-433.63 3.83,-429.79 7.67,-429.79 7.67,-429.79 53.33,-429.79 53.33,-429.79 57.17,-429.79 61,-433.63 61,-437.46 61,-437.46 61,-445.13 61,-445.13 61,-448.96 57.17,-452.79 53.33,-452.79"/>
<text text-anchor="middle" x="30.5" y="-437.59" font-family="Arial" font-size="14.00" fill="#c6c5fe">main.ts</text>
</g>
<!-- main.ts&#45;&gt;index.ts -->
<g id="edge73" class="edge">
<title>main.ts&#45;&gt;index.ts</title>
<path fill="none" stroke="#757575" d="M61.09,-441.29C69.15,-441.29 78.04,-441.29 86.62,-441.29"/>
<polygon fill="#757575" stroke="#757575" points="86.85,-444.79 96.85,-441.29 86.85,-437.79 86.85,-444.79"/>
</g>
<!-- platform/ffmpeg/FFmpegNodeAdapter.ts&#45;&gt;platform/ffmpeg/AbstractFFmpeg.ts -->
<g id="edge80" class="edge">
<title>platform/ffmpeg/FFmpegNodeAdapter.ts&#45;&gt;platform/ffmpeg/AbstractFFmpeg.ts</title>
<path fill="none" stroke="#757575" d="M1952.09,-412.84C1962.03,-416.51 1971.55,-421.24 1980,-427.29 2005.9,-445.85 1989.9,-471.02 2016,-489.29 2022.73,-494 2030.04,-497.94 2037.7,-501.23"/>
<polygon fill="#757575" stroke="#757575" points="2036.6,-504.55 2047.19,-504.92 2039.14,-498.03 2036.6,-504.55"/>
</g>
<!-- platform/ffmpeg/MusicNodeAdapter.ts&#45;&gt;platform/filesystem/AbstractFilesystem.ts -->
<g id="edge82" class="edge">
<title>platform/ffmpeg/MusicNodeAdapter.ts&#45;&gt;platform/filesystem/AbstractFilesystem.ts</title>
<path fill="none" stroke="#757575" d="M1925.55,-191.77C1953.81,-187.94 1986.32,-184.18 2016,-182.29 2145.96,-174.06 2186.42,-138.35 2309,-182.29 2374.66,-205.84 2432.95,-267.7 2459.81,-299.62"/>
<polygon fill="#757575" stroke="#757575" points="2457.18,-301.92 2466.24,-307.41 2462.58,-297.47 2457.18,-301.92"/>
</g>
<!-- platform/ffmpeg/MusicNodeAdapter.ts&#45;&gt;platform/logging/AbstractLogger.ts -->
<g id="edge83" class="edge">
<title>platform/ffmpeg/MusicNodeAdapter.ts&#45;&gt;platform/logging/AbstractLogger.ts</title>
<path fill="none" stroke="#757575" d="M1937.53,-214.83C2061.58,-231.92 2278.46,-264.15 2309,-284.29 2333.39,-300.38 2322.62,-320.51 2345,-339.29 2367.44,-358.13 2397.16,-371.54 2422.57,-380.51"/>
<polygon fill="#757575" stroke="#757575" points="2421.48,-383.84 2432.08,-383.73 2423.73,-377.21 2421.48,-383.84"/>
</g>
<!-- platform/ffmpeg/MusicNodeAdapter.ts&#45;&gt;platform/ffmpeg/AbstractMusic.ts -->
<g id="edge81" class="edge">
<title>platform/ffmpeg/MusicNodeAdapter.ts&#45;&gt;platform/ffmpeg/AbstractMusic.ts</title>
<path fill="none" stroke="#757575" d="M1972.83,-203.29C1996.36,-203.29 2020.97,-203.29 2044.34,-203.29"/>
<polygon fill="#757575" stroke="#757575" points="2044.64,-206.79 2054.64,-203.29 2044.63,-199.79 2044.64,-206.79"/>
</g>
<!-- platform/filesystem/FilesystemNodeAdapter.ts&#45;&gt;platform/filesystem/AbstractFilesystem.ts -->
<g id="edge84" class="edge">
<title>platform/filesystem/FilesystemNodeAdapter.ts&#45;&gt;platform/filesystem/AbstractFilesystem.ts</title>
<path fill="none" stroke="#757575" d="M2271.72,-134.84C2284.7,-138.47 2297.43,-143.18 2309,-149.29 2378.69,-186.14 2437,-262.51 2462.17,-299.01"/>
<polygon fill="#757575" stroke="#757575" points="2459.34,-301.07 2467.84,-307.39 2465.13,-297.14 2459.34,-301.07"/>
</g>
<!-- platform/filesystem/FilesystemNodeAdapter.ts&#45;&gt;platform/logging/AbstractLogger.ts -->
<g id="edge85" class="edge">
<title>platform/filesystem/FilesystemNodeAdapter.ts&#45;&gt;platform/logging/AbstractLogger.ts</title>
<path fill="none" stroke="#757575" d="M2226.58,-134.9C2255.6,-143.36 2288.14,-157.81 2309,-182.29 2355.42,-236.79 2299.13,-284.33 2345,-339.29 2361.52,-359.09 2386.33,-372.06 2409.89,-380.47"/>
<polygon fill="#757575" stroke="#757575" points="2408.94,-383.85 2419.53,-383.7 2411.16,-377.21 2408.94,-383.85"/>
</g>
<!-- platform/logging/PinoLogAdapter.ts&#45;&gt;platform/logging/AbstractLogger.ts -->
<g id="edge86" class="edge">
<title>platform/logging/PinoLogAdapter.ts&#45;&gt;platform/logging/AbstractLogger.ts</title>
<path fill="none" stroke="#757575" d="M1934.82,-273.83C2027.17,-287.31 2179.75,-311.82 2309,-343.29 2351.8,-353.72 2399.71,-369.08 2433.11,-380.41"/>
<polygon fill="#757575" stroke="#757575" points="2432.4,-383.86 2442.99,-383.78 2434.66,-377.24 2432.4,-383.86"/>
</g>
</g>
</svg>
